<?xml version="1.0" encoding="UTF-8"?>
<svg width="1200pt" height="1200pt" version="1.1" viewBox="0 0 1200 1200" xmlns="http://www.w3.org/2000/svg">
 <path d="m827.21 623.95c-3.0469-13.359-11.672-22.969-25.266-26.016-9.2344-2.6719-18.797-0.14062-27.047 4.3594-9.7031 4.9219-18.234 11.906-24.281 21-8.3438 12.188-16.734 24.375-23.719 37.406-3.9844 7.4062-7.5938 15.047-11.438 22.547-3.2812 6.75-6.9844 12.984-13.5 17.156-18 12.703-25.172-51.141-18.938-60.516 1.4062-2.8125 4.2656-4.3594 6.8438-6.3281 15.094-11.391 85.547-54.141 87.703-162.89 0.79688-40.688-27.797-150.24-220.08-143.76-113.2 3.7969-184.69 91.922-207.14 135.14-31.547 60.797-22.453 125.06 35.766 166.31 13.828 10.5 30.516 15.984 46.453 22.406 11.953 4.7344 24.469 6 36.891 8.5781 2.7188 0.70313 2.1562 1.875 0.046875 3.4688-21.047 15.422-40.266 33.375-41.438 61.312-2.8125 23.812 21.844 44.859 44.953 39.328 17.578-4.4531 12.516-4.7344 20.578 10.688 1.9219 3.2812 2.625 7.0781 1.125 10.688-1.9219 5.5781-3.8906 11.156-5.6719 16.781-1.9219 6-3.5625 12.141-3.9375 18.281-1.5 23.391 13.031 41.25 36.703 41.438 5.9062 0.09375 11.719-1.0312 17.344-2.8594 11.859-3.9375 22.078-10.219 30.094-19.547 2.2031-3.0469 5.4375-5.1562 9.2344-4.4062 5.0156 0.51562 10.078 1.2188 15.047 1.9219 3.4219 0.375 6.5625 1.8281 7.9688 5.2031 11.672 27.281 39.562 37.875 67.125 28.688l0.1875-0.046876c10.781-3.375 22.078-10.5 24.047-24.656 0.5625-5.625 2.25-9.0938 8.2031-10.031 25.688-5.4375 49.734-17.25 70.078-33.797 31.688-27.891 49.734-68.672 56.062-109.78 3.5156-22.359 5.1562-45.703-0.14062-67.969zm-339.94 59.391c-1.5 7.2188-2.9062 13.828-4.0312 20.531-0.5625 3.2812-0.84375 6.6094-1.0312 9.9375-0.28125 3.4219 0.046875 7.2188-1.6875 10.266-2.0156 3.6094-6.2812 4.4531-10.172 3.4688-8.2969-1.8281-12.141-7.6875-9.3281-15.422 3.9844-9.7031 11.766-17.062 18.422-25.078 1.9688-2.2969 4.0312-4.4062 6.6094-6.0938 0.51562-0.28125 0.9375-0.42188 1.1719-0.32812l0.046875 0.046875c0.46875 0.32812 0.1875 1.875 0 2.625zm52.641 135.66c-3.5625 3.8906-14.391 5.7656-18.75 2.7656-0.23438-0.14062-0.42188-0.32812-0.60938-0.5625-3.3281-3.8438-1.3594-9.1406-1.3594-13.922 0.09375-0.9375 0.09375-2.3438 0.84375-2.8594l0.09375-0.046875c0.65625-0.28125 1.6406 0.375 2.25 0.79688 5.7656 4.0312 11.062 7.6875 16.5 11.484 0.79688 0.5625 1.5938 1.4531 1.0312 2.3906zm234.79-89.484c-0.65625 0.9375-1.7344 1.5469-2.9062 1.5938-6.4219 0.32812-12.328-1.2188-15.938 7.1719-2.9062 6.9375-0.65625 9.8906 4.8281 13.922 0.28125 0.28125 0.46875 0.51562 0.65625 0.84375 0 0 0.28125 0.60938 0.23438 0.60938 0.28125 0.9375-0.375 2.0625-1.0312 2.8125-2.4844 2.8594-5.0625 5.6719-7.5938 8.5781-3.2344 3.6094-4.5469 5.8125-5.8594 0.84375-2.8594-6.8906-13.219-3.5625-12 3.6094 0.42188 4.3125 10.547 3.4219 4.0312 7.9219-5.4844 4.875-42.094 27.188-46.5 19.734-3-5.9062-4.125-12.984-8.9531-17.766-4.1719-4.1719-11.156-4.875-16.125-1.7344-14.766 8.5312 3.0938 46.547-12.797 55.359-4.0781 2.2031-9.4688 1.5-13.312-0.9375-13.734-9.4219-13.219-29.344-15.844-44.203-1.2188-10.688-16.406-13.875-22.125-4.9688-3.375 5.8594-4.3594 12.844-6 19.266-0.46875 2.3438-2.6719 2.9062-4.7812 2.3906-5.5312-1.2656-10.969-2.5781-16.312-3.9375-29.672-6.0938-46.969-28.266-55.453-56.016-0.046875-0.09375-0.046875-0.1875-0.09375-0.28125-6.4219-26.578-1.3125-54.562 5.8594-80.438 0-0.09375 0.046875-0.1875 0.046875-0.28125 1.9219-10.359 6.6562-9.3281 15.375-10.734 8.6719-1.6875 17.953-2.9062 26.156-6.4219 0.23438-0.09375 0.42188-0.1875 0.60938-0.32812 7.0312-4.5469 5.25-16.969-4.2188-16.969-9.9844 0.23438-19.922 1.6875-29.906 1.2656-11.531 0-23.016-2.1094-34.312-3.9375-36.094-5.3438-75.094-12.234-102.05-38.953-10.312-10.266-19.266-22.453-23.109-36.656-5.2969-22.922-2.0156-48 8.25-69.094 12.562-26.344 67.078-123.66 207.84-118.08 186.37 7.3594 172.87 188.26 76.125 237-7.0781 3.5625-19.594 8.8125-21.422 23.438-3.8438 30.562-0.42188 60.938 8.6719 90.047 3.2812 10.547 11.016 17.859 21.656 21.656 14.812 5.25 29.953 5.4844 43.594-2.0625 16.266-8.0625 25.078-22.547 32.578-38.016 7.6875-14.812 15.234-29.859 23.578-44.156 1.2188-2.2969 12.703-19.5 14.578-13.594 4.0312 15.094-2.9062 72.844-16.031 91.406z" fill="#fff"/>
 <path d="m857.58 789.24v-0.1875c0.75-6.5156-4.4531-12.234-10.781-13.453-15.656-2.7656-31.641 8.6719-42.797 18.562-6.0938 5.7188-11.484 12.375-16.031 19.406-1.7812 2.8125-3.4219 5.9531-4.125 9.0938-3 11.859 9 17.25 18.516 12.328 5.5781-2.625 10.359-7.5 15.328-11.766 4.3594-3.8438 8.9531-7.4062 13.828-10.547 9.0938-6.6562 24.047-10.828 26.016-23.297z" fill="#fff"/>
 <path d="m865.78 829.4c-3.5156-5.2031-10.078-7.5-16.312-7.9688h-0.23438c-8.2031-0.46875-16.781 1.7344-23.203 6.6562-4.4062 3.1406-8.625 10.688-3 14.578 4.0312 2.8125 12.797 1.7812 18.703 2.0156 6.6562 0.09375 13.219 1.5469 19.031-0.60938 6.1875-1.9688 9-9.2812 5.0156-14.672z" fill="#fff"/>
 <path d="m633.42 694.87c-4.3125 2.2031-5.0156 6.5156-6.0938 10.359-2.4844 8.7188-6.75 16.406-13.031 22.734-2.7188 2.5312-5.625 5.0625-9.375 5.625-3.6094 0.60938-8.5781-0.60938-10.453-2.9531-2.1094-3-0.09375-7.125 0.98438-10.266 5.0156-12.281 10.172-24.422 15.234-36.656 3.2812-7.5469 2.25-17.766-6.6094-20.625-6.75-1.8281-13.312 3.2344-17.391 8.2969-6.0469 8.7188-12.094 17.484-17.625 26.531-7.4062 12.141-12.844 25.078-11.297 39.75 1.3594 12.797 8.3438 22.172 19.594 27.75 8.4375 4.1719 17.672 5.1562 27.188 3 11.25-2.5312 20.906-7.6875 27.469-17.016 9.7031-13.734 12.328-29.953 14.297-46.219v-2.4844c-0.14062-7.875-6.0469-11.344-12.984-7.8281z" fill="#fff"/>
 <path d="m627.56 510.89v-0.23438c-1.2188-23.766-22.312-40.594-45.844-35.719-36.703 7.0781-46.734 62.625-8.5781 75.562 25.781 9 55.641-12.141 54.422-39.609zm-23.484 15.141c3.3281-2.1094 6.1406 1.5469 4.125 4.6406l-0.14062 0.1875c-1.125 1.6406-3.7969 2.2969-5.1562 0.65625-1.1719-1.3125-0.65625-4.3125 1.2188-5.4844zm-9.6562-28.828c2.5312-0.84375 2.7656 2.9062 1.2656 4.125l-0.1875 0.14062c-3.375 2.1094-3.9375-3.375-1.125-4.2656zm-24.281-1.5c-1.8281-9.7031 15.891-16.547 17.953-5.625v0.1875c0.84375 8.8125-15.094 15.656-18 5.4375z" fill="#fff"/>
 <path d="m555.84 561.19c-3.2344-0.1875-6.8438 0.51562-9.75 1.9219-13.219 6.4688-27.141 9.9844-41.812 10.359-8.0625 0.1875-16.172 0.51562-24.188-0.09375-7.9219-0.60938-15.984-1.5469-23.531-3.75-6.9844-2.0625-13.922-4.9219-19.266-10.688-4.0312-4.3594-10.5-4.0781-14.625-0.51562-3.375 2.9531-4.3594 9.9844-0.84375 13.594 4.6406 4.7812 9.75 9.6094 15.609 12.656 6.2812 3.2344 13.547 4.7812 20.531 6.4219 7.5 1.7344 15.094 3.1875 22.734 3.75 8.4844 0.65625 39.375-0.32812 46.125-1.6875 12-2.4375 23.438-6.5625 32.484-15.141 2.25-2.1562 3.5156-6.375 3.4219-9.5625-0.09375-3.5625-2.8594-6.9844-6.8906-7.2188z" fill="#fff"/>
 <path d="m444.1 496.45v-0.23438c0.375-20.484-19.969-35.531-37.875-22.875-13.922 10.078-18.562 34.547-7.0781 48.703 6.0469 7.6406 16.875 10.031 25.781 6.2344 12.281-4.9688 19.312-18.797 19.172-31.828zm-26.625-7.7344c-8.8125 2.7656-11.391-9.7031-2.2031-10.453h0.23438c6.4688-0.09375 7.8281 8.2031 1.9688 10.453zm4.5 27c-1.9688-0.375-2.7188-2.8594-1.6406-3.8438 1.5938-1.3594 4.875-0.28125 4.9688 1.875v0.23438c0 1.6406-1.9688 2.1562-3.3281 1.7812z" fill="#fff"/>
 <path d="m576.84 404.72c7.9219 0.9375 15.375-6.1875 15.188-14.438-0.1875-7.4062-8.0625-13.734-16.594-13.453-7.3594 0.23438-14.109 7.2656-13.969 14.297 0.09375 5.9062 5.7656 13.688 15.422 13.547z" fill="#fff"/>
 <path d="m689.68 449.21c6.5625 0 12.234-5.5312 12.281-12 0.046875-7.5938-5.625-13.641-12.609-13.5-7.2656 0.14062-12.844 5.7188-12.797 12.844 0.046875 7.6406 5.25 12.609 13.172 12.656z" fill="#fff"/>
 <path d="m629.9 405.98c8.2031 0.14062 12.422-3.9375 12.656-12.188 0.1875-5.7656-6.3281-11.672-12.75-11.625-6.4688 0.046875-11.953 5.4844-11.906 12.281 0.046875 5.3906 3.8438 11.203 12 11.531z" fill="#fff"/>
 <path d="m687 502.74c-0.14062 7.2188 4.0312 11.484 11.484 11.719 6.3281 0.1875 12.75-5.1562 12.984-10.828 0.28125-6.9375-4.4062-12.375-10.922-12.609-7.125-0.28125-13.406 5.1562-13.547 11.719z" fill="#fff"/>
 <path d="m663.1 579.42c-6 0-11.156 4.875-11.109 10.5 0 5.5781 3.4688 8.9531 9.1406 8.9062 5.9531-0.046875 10.5-4.5938 10.453-10.453 0-4.7344-4.0312-9-8.4844-8.9531z" fill="#fff"/>
 <path d="m531.19 397.36c4.5469 0.046875 9.0469-3.4688 9.1875-7.2656 0.23438-5.25-3.1406-8.8594-8.4375-9-4.7812-0.14062-9 3.4688-9.2812 8.0156-0.28125 4.2188 3.8438 8.2031 8.5312 8.25z" fill="#fff"/>
 <path d="m676.45 547.87c-5.3906 0.046875-8.9062 3.8906-8.8125 9.6562 0.046875 4.0781 3.2812 6.9375 7.6875 6.7969 4.9688-0.1875 8.625-3.7031 8.5312-8.2031-0.09375-4.7344-3.2812-8.3438-7.4062-8.2969z" fill="#fff"/>
 <path d="m662.9 418.74c5.0625 0 8.2969-3.0938 8.3438-8.1562 0.046875-3.7031-3.9844-7.6875-7.7812-7.6406-4.8281 0.046875-8.0156 3.2344-8.1094 8.0156-0.09375 4.9688 2.625 7.7344 7.5469 7.7344z" fill="#fff"/>
 <path d="m721.45 764.02c-5.6719 0.09375-9.4219 3.4219-9.375 8.25 0.046875 3.4219 3.5156 6.8438 7.0312 6.8906 4.6875 0 8.8125-3.9844 8.8594-8.5781 0-3.4219-3.0938-6.6094-6.4688-6.5625z" fill="#fff"/>
 <path d="m757.18 705.24c-4.0781 0.09375-7.4062 3.3281-7.4531 7.2656-0.046875 4.5938 3.0938 7.875 7.6406 7.9219 4.1719 0.046875 7.2656-3.2812 7.2656-7.8281 0-4.7344-2.7656-7.4531-7.4531-7.3594z" fill="#fff"/>
 <path d="m691.31 471.52c-0.046875 4.7812 2.5781 7.6875 7.0781 7.7812 4.875 0.09375 7.5469-2.3438 7.7812-7.125 0.1875-3.6562-3.2344-7.5469-6.7031-7.5938-4.5469-0.046875-8.1094 2.9531-8.1562 6.9375z" fill="#fff"/>
 <path d="m737.58 734.9c-3.9844 0.046875-7.4531 3.8438-7.3594 7.9219 0.09375 4.2188 3.1406 7.4062 6.8906 7.2188 4.125-0.1875 7.9688-3.8438 8.0156-7.5469 0.046875-4.4062-3.2344-7.6875-7.5469-7.6406z" fill="#fff"/>
 <path d="m636.19 430.45c0.1875 3.6562 3.4219 6.6094 7.1719 6.5156 3.8438-0.046875 7.2188-3.4219 7.0781-7.0781-0.14062-4.0312-3.2812-7.125-7.1719-7.0312-4.0781 0.09375-7.3125 3.5625-7.0781 7.5469z" fill="#fff"/>
 <path d="m721.74 751.26c-0.14062-3.7031-3.2812-6.4688-7.2188-6.3281-4.0781 0.14062-6.8906 3.1875-6.75 7.2656 0.14062 3.4688 3.0938 6.2344 6.5156 6.0469 3.8438-0.1875 7.5469-3.7031 7.4531-6.9844z" fill="#fff"/>
 <path d="m659.81 458.72c3.8906 0.09375 6.9375-2.7656 7.0312-6.5625 0.09375-3.2344-2.5781-6-6-6.1406-4.3125-0.1875-7.5938 2.6719-7.7812 6.7969-0.1875 3.6562 2.25 5.8125 6.7031 5.9062z" fill="#fff"/>
 <path d="m669.28 478.4c0.046875 4.0781 3 6.8438 7.2188 6.75 2.9531-0.046875 5.625-3.1406 5.625-6.5156 0-3.9375-2.5312-6.6562-6.2812-6.6562-3.7031 0-6.6562 2.9062-6.6094 6.4219z" fill="#fff"/>
 <path d="m675.56 534.94c3.1406-0.046875 6.1875-3.3281 6.0938-6.6094-0.046875-2.7656-2.9062-5.3438-5.8125-5.25-3.7031 0.09375-6.7969 3.3281-6.75 6.9375 0.046875 2.8125 2.8594 4.9219 6.4688 4.9219z" fill="#fff"/>
 <path d="m657.42 566.53c0.046875-3.2812-1.5469-5.2031-4.2656-5.4375-3.7969-0.09375-7.2188 2.7656-7.4531 5.5781-0.1875 2.5781 2.7656 5.1562 5.9531 5.2031 3.0469 0.046875 5.7188-2.3438 5.7656-5.3438z" fill="#fff"/>
 <path d="m679.92 504.1c-0.46875-1.6875-2.4844-3.6094-4.2188-4.0781-2.4844-0.75-5.2031 2.6719-5.2031 7.125 0.84375 0.5625 2.25 2.1094 3.8438 2.4375 2.5781 0.46875 6.2344-3.0469 5.5312-5.4375z" fill="#fff"/>
 <path d="m610.97 411.42c0.28125-2.5781-1.7344-4.9688-4.6406-4.3594-1.6406 0.32812-3.9375 2.4375-4.0781 3.8906-0.09375 1.6406 1.875 3.4219 3.75 6.375 2.3906-2.7188 4.7344-4.1719 4.9219-5.8594z" fill="#fff"/>
</svg>
